<svg width="52" height="52" viewBox="0 0 52 52" fill="none" xmlns="http://www.w3.org/2000/svg">
<path d="M48.525 52C43.0458 52 37.4292 50.6281 31.675 47.8844C25.9208 45.1407 20.575 41.2896 15.6375 36.3313C10.6999 31.3729 6.85934 26.0271 4.11564 20.2937C1.37188 14.5604 0 8.95415 0 3.47498C0 2.4821 0.325 1.65474 0.975 0.992873C1.625 0.330956 2.4375 0 3.4125 0H11.45C12.3333 0 13.1042 0.278117 13.7625 0.834355C14.4209 1.39059 14.8667 2.10413 15.1 2.97497L16.7125 10.725C16.8625 11.6333 16.8354 12.4271 16.6312 13.1063C16.4271 13.7854 16.0667 14.3417 15.55 14.775L8.41872 21.425C9.75208 23.8458 11.2261 26.0948 12.8407 28.1719C14.4552 30.249 16.1771 32.2167 18.0062 34.075C19.8938 35.9625 21.925 37.7177 24.1 39.3406C26.275 40.9635 28.6625 42.4958 31.2625 43.9375L38.2125 36.8625C38.7417 36.2917 39.3365 35.9156 39.9969 35.7344C40.6573 35.5531 41.3875 35.5166 42.1875 35.625L49.025 37.025C49.9084 37.2416 50.625 37.6864 51.175 38.3593C51.725 39.0323 52 39.8041 52 40.675V48.5875C52 49.5625 51.669 50.375 51.0071 51.025C50.3453 51.675 49.5179 52 48.525 52ZM6.89374 18.375L13.1312 12.6375C13.3395 12.4708 13.475 12.2416 13.5375 11.95C13.6 11.6583 13.5896 11.3875 13.5063 11.1375L12.0625 4.25002C11.9791 3.91668 11.8333 3.66668 11.625 3.50001C11.4167 3.33334 11.1458 3.25 10.8125 3.25H4.14375C3.89377 3.25 3.68545 3.33334 3.51877 3.50001C3.3521 3.66668 3.26877 3.875 3.26877 4.12498C3.33128 6.34581 3.67919 8.66458 4.31251 11.0813C4.94582 13.4979 5.80623 15.9292 6.89374 18.375ZM34.3562 45.4625C36.5521 46.55 38.8927 47.3542 41.3781 47.875C43.8635 48.3958 46.0292 48.675 47.875 48.7125C48.125 48.7125 48.3333 48.6292 48.5 48.4625C48.6667 48.2959 48.75 48.0875 48.75 47.8375V41.3125C48.75 40.9792 48.6667 40.7084 48.5 40.5C48.3333 40.2917 48.0833 40.1458 47.75 40.0625L41.7375 38.8312C41.4875 38.7479 41.2687 38.7375 41.0812 38.8C40.8937 38.8625 40.6959 38.9979 40.4875 39.2063L34.3562 45.4625Z" fill="#1C1B1F"/>
</svg>
